{
  "accessors": [
    {
      "bufferView": 2,
      "componentType": 5126,
      "count": 1344,
      "max": [
        0.09751299768686295,
        -0.2710629999637604,
        1.1315699815750122
      ],
      "min": [
        0.0640806034207344,
        -0.30504900217056274,
        1.1009700298309326
      ],
      "type": "VEC3"
    },
    {
      "bufferView": 2,
      "byteOffset": 16128,
      "componentType": 5126,
      "count": 1344,
      "max": [
        0.9979228973388672,
        0.8191505670547485,
        0.9948770999908447
      ],
      "min": [
        -0.9963446259498596,
        -0.9957144856452942,
        -0.8161571621894836
      ],
      "type": "VEC3"
    },
    {
      "bufferView": 1,
      "componentType": 5126,
      "count": 1344,
      "max": [
        117.58899688720703,
        863.1820068359375
      ],
      "min": [
        -115.81199645996094,
        62.85150146484375
      ],
      "type": "VEC2"
    },
    {
      "bufferView": 0,
      "componentType": 5125,
      "count": 2112,
      "type": "SCALAR"
    },
    {
      "bufferView": 2,
      "byteOffset": 32256,
      "componentType": 5126,
      "count": 70,
      "max": [
        0.02805989980697632,
        -0.18385200202465057,
        1.1030100584030151
      ],
      "min": [
        0.015981899574398994,
        -0.1957540065050125,
        1.0995899438858032
      ],
      "type": "VEC3"
    },
    {
      "bufferView": 2,
      "byteOffset": 33096,
      "componentType": 5126,
      "count": 70,
      "max": [
        0.9963446259498596,
        0.9751383662223816,
        0.971572756767273
      ],
      "min": [
        -0.9963444471359253,
        -0.975134015083313,
        -0.23667703568935394
      ],
      "type": "VEC3"
    },
    {
      "bufferView": 1,
      "byteOffset": 10752,
      "componentType": 5126,
      "count": 70,
      "max": [
        0.9798009991645813,
        0.4149779975414276
      ],
      "min": [
        0.8204169869422913,
        0.25585898756980896
      ],
      "type": "VEC2"
    },
    {
      "bufferView": 0,
      "byteOffset": 8448,
      "componentType": 5125,
      "count": 138,
      "type": "SCALAR"
    },
    {
      "bufferView": 2,
      "byteOffset": 33936,
      "componentType": 5126,
      "count": 256,
      "max": [
        -0.049580998718738556,
        0.5278220176696777,
        0.19032299518585205
      ],
      "min": [
        -0.06502140313386917,
        0.5123109817504883,
        0.16196900606155396
      ],
      "type": "VEC3"
    },
    {
      "bufferView": 2,
      "byteOffset": 37008,
      "componentType": 5126,
      "count": 256,
      "max": [
        0.18402595818042755,
        0.938102126121521,
        0.5985589623451233
      ],
      "min": [
        -0.10306493937969208,
        0.7994328737258911,
        0.3450920283794403
      ],
      "type": "VEC3"
    },
    {
      "bufferView": 1,
      "byteOffset": 11312,
      "componentType": 5126,
      "count": 256,
      "max": [
        92.6989974975586,
        2.602299928665161
      ],
      "min": [
        -92.73899841308594,
        -183.58399963378906
      ],
      "type": "VEC2"
    },
    {
      "bufferView": 0,
      "byteOffset": 9000,
      "componentType": 5125,
      "count": 360,
      "type": "SCALAR"
    },
    {
      "bufferView": 2,
      "byteOffset": 40080,
      "componentType": 5126,
      "count": 77,
      "max": [
        -0.05374139919877052,
        -0.22898800671100616,
        1.097830057144165
      ],
      "min": [
        -0.0749095007777214,
        -0.24072100222110748,
        1.0923399925231934
      ],
      "type": "VEC3"
    },
    {
      "bufferView": 2,
      "byteOffset": 41004,
      "componentType": 5126,
      "count": 77,
      "max": [
        0.9963443279266357,
        0.9702906608581543,
        0.9715723395347595
      ],
      "min": [
        -0.9963444471359253,
        -0.9702898859977722,
        -0.23664988577365875
      ],
      "type": "VEC3"
    },
    {
      "bufferView": 1,
      "byteOffset": 13360,
      "componentType": 5126,
      "count": 77,
      "max": [
        0.9642720222473145,
        0.5356159806251526
      ],
      "min": [
        0.7250869870185852,
        0.009766260161995888
      ],
      "type": "VEC2"
    },
    {
      "bufferView": 0,
      "byteOffset": 10440,
      "componentType": 5125,
      "count": 156,
      "type": "SCALAR"
    },
    {
      "bufferView": 2,
      "byteOffset": 41928,
      "componentType": 5126,
      "count": 128,
      "max": [
        0.033490199595689774,
        -0.2972939908504486,
        1.1114599704742432
      ],
      "min": [
        0.010308199562132359,
        -0.2988539934158325,
        1.0882999897003174
      ],
      "type": "VEC3"
    },
    {
      "bufferView": 2,
      "byteOffset": 43464,
      "componentType": 5126,
      "count": 128,
      "max": [
        0.22463710606098175,
        -0.9640341401100159,
        0.19050699472427368
      ],
      "min": [
        -0.23100808262825012,
        -0.9992662668228149,
        -0.2648070156574249
      ],
      "type": "VEC3"
    },
    {
      "bufferView": 1,
      "byteOffset": 13976,
      "componentType": 5126,
      "count": 128,
      "max": [
        3.582350015640259,
        84.5344009399414
      ],
      "min": [
        -3.582360029220581,
        77.43170166015625
      ],
      "type": "VEC2"
    },
    {
      "bufferView": 0,
      "byteOffset": 11064,
      "componentType": 5125,
      "count": 192,
      "type": "SCALAR"
    },
    {
      "bufferView": 2,
      "byteOffset": 45000,
      "componentType": 5126,
      "count": 26,
      "max": [
        -0.051829200237989426,
        0.5293689966201782,
        0.18971699476242065
      ],
      "min": [
        -0.06252419948577881,
        0.516107976436615,
        0.16547800600528717
      ],
      "type": "VEC3"
    },
    {
      "bufferView": 2,
      "byteOffset": 45312,
      "componentType": 5126,
      "count": 26,
      "max": [
        0.04088928550481796,
        0.8780326843261719,
        0.47685080766677856
      ],
      "min": [
        0.04088928550481796,
        0.8780326843261719,
        0.47685080766677856
      ],
      "type": "VEC3"
    },
    {
      "bufferView": 1,
      "byteOffset": 15000,
      "componentType": 5126,
      "count": 26,
      "max": [
        0.8137519955635071,
        0.318556010723114
      ],
      "min": [
        0.7092790007591248,
        0.00971618015319109
      ],
      "type": "VEC2"
    },
    {
      "bufferView": 0,
      "byteOffset": 11832,
      "componentType": 5125,
      "count": 72,
      "type": "SCALAR"
    },
    {
      "bufferView": 2,
      "byteOffset": 45624,
      "componentType": 5126,
      "count": 130,
      "max": [
        -0.009404540061950684,
        -0.18707600235939026,
        0.12294699996709824
      ],
      "min": [
        -0.019681699573993683,
        -0.2138739973306656,
        0.09400860220193863
      ],
      "type": "VEC3"
    },
    {
      "bufferView": 2,
      "byteOffset": 47184,
      "componentType": 5126,
      "count": 130,
      "max": [
        0.9775972366333008,
        0.9903694987297058,
        0.9788471460342407
      ],
      "min": [
        -0.21022804081439972,
        -0.9903686046600342,
        -0.9788475036621094
      ],
      "type": "VEC3"
    },
    {
      "bufferView": 1,
      "byteOffset": 15208,
      "componentType": 5126,
      "count": 130,
      "max": [
        0.6877819895744324,
        0.522042989730835
      ],
      "min": [
        0.5094109773635864,
        0.0097716199234128
      ],
      "type": "VEC2"
    },
    {
      "bufferView": 0,
      "byteOffset": 12120,
      "componentType": 5125,
      "count": 228,
      "type": "SCALAR"
    },
    {
      "bufferView": 2,
      "byteOffset": 48744,
      "componentType": 5126,
      "count": 674,
      "max": [
        -0.04879999905824661,
        0.5314880013465881,
        0.1927119940519333
      ],
      "min": [
        -0.06565330177545547,
        0.5118430256843567,
        0.16131700575351715
      ],
      "type": "VEC3"
    },
    {
      "bufferView": 2,
      "byteOffset": 56832,
      "componentType": 5126,
      "count": 674,
      "max": [
        0.9991289973258972,
        0.8780327439308167,
        0.8748258948326111
      ],
      "min": [
        -0.9993366599082947,
        -0.8780327439308167,
        -0.8808177709579468
      ],
      "type": "VEC3"
    },
    {
      "bufferView": 1,
      "byteOffset": 16248,
      "componentType": 5126,
      "count": 674,
      "max": [
        524.0640258789063,
        525.1500244140625
      ],
      "min": [
        -524.0640258789063,
        -108.42400360107422
      ],
      "type": "VEC2"
    },
    {
      "bufferView": 0,
      "byteOffset": 13032,
      "componentType": 5125,
      "count": 1284,
      "type": "SCALAR"
    },
    {
      "bufferView": 2,
      "byteOffset": 64920,
      "componentType": 5126,
      "count": 9990,
      "max": [
        0.23053200542926788,
        -0.2499530017375946,
        1.1267600059509277
      ],
      "min": [
        -0.18812499940395355,
        -0.2857550084590912,
        1.0575400590896606
      ],
      "type": "VEC3"
    },
    {
      "bufferView": 2,
      "byteOffset": 184800,
      "componentType": 5126,
      "count": 9990,
      "max": [
        0.9290041327476501,
        0.9549341201782227,
        0.9772138595581055
      ],
      "min": [
        -0.9290068745613098,
        -0.9547340273857117,
        -0.9697283506393433
      ],
      "type": "VEC3"
    },
    {
      "bufferView": 1,
      "byteOffset": 21640,
      "componentType": 5126,
      "count": 9990,
      "max": [
        210.89700317382813,
        864.489013671875
      ],
      "min": [
        -215.63499450683594,
        -202.14700317382813
      ],
      "type": "VEC2"
    },
    {
      "bufferView": 0,
      "byteOffset": 18168,
      "componentType": 5125,
      "count": 9990,
      "type": "SCALAR"
    },
    {
      "bufferView": 2,
      "byteOffset": 304680,
      "componentType": 5126,
      "count": 9994,
      "max": [
        0.22992199659347534,
        -0.24997800588607788,
        1.1258800029754639
      ],
      "min": [
        -0.18796299397945404,
        -0.28575098514556885,
        1.0571099519729614
      ],
      "type": "VEC3"
    },
    {
      "bufferView": 2,
      "byteOffset": 424608,
      "componentType": 5126,
      "count": 9994,
      "max": [
        0.9286913871765137,
        0.9831825494766235,
        0.9965277910232544
      ],
      "min": [
        -0.9295233488082886,
        -0.987521767616272,
        -0.9913845062255859
      ],
      "type": "VEC3"
    },
    {
      "bufferView": 1,
      "byteOffset": 101560,
      "componentType": 5126,
      "count": 9994,
      "max": [
        217.3280029296875,
        864.2420043945313
      ],
      "min": [
        -215.68899536132813,
        -177.53799438476563
      ],
      "type": "VEC2"
    },
    {
      "bufferView": 0,
      "byteOffset": 58128,
      "componentType": 5125,
      "count": 10710,
      "type": "SCALAR"
    },
    {
      "bufferView": 2,
      "byteOffset": 544536,
      "componentType": 5126,
      "count": 6526,
      "max": [
        0.2378859966993332,
        -0.2500019967556,
        1.1273800134658813
      ],
      "min": [
        -0.19543899595737457,
        -0.28578901290893555,
        1.0566099882125854
      ],
      "type": "VEC3"
    },
    {
      "bufferView": 2,
      "byteOffset": 622848,
      "componentType": 5126,
      "count": 6526,
      "max": [
        0.9963444471359253,
        0.9999182224273682,
        0.9996351003646851
      ],
      "min": [
        -0.9963444471359253,
        -0.9996325373649597,
        -0.9996352195739746
      ],
      "type": "VEC3"
    },
    {
      "bufferView": 1,
      "byteOffset": 181512,
      "componentType": 5126,
      "count": 6526,
      "max": [
        224.23800659179688,
        872.843017578125
      ],
      "min": [
        -224.2449951171875,
        -119.83100128173828
      ],
      "type": "VEC2"
    },
    {
      "bufferView": 0,
      "byteOffset": 100968,
      "componentType": 5125,
      "count": 9060,
      "type": "SCALAR"
    },
    {
      "bufferView": 2,
      "byteOffset": 701160,
      "componentType": 5126,
      "count": 7995,
      "max": [
        0.22637200355529785,
        -0.174017995595932,
        1.128640055656433
      ],
      "min": [
        -0.18392500281333923,
        -0.3606950044631958,
        0.4471929967403412
      ],
      "type": "VEC3"
    },
    {
      "bufferView": 2,
      "byteOffset": 797100,
      "componentType": 5126,
      "count": 7995,
      "max": [
        0.9987883567810059,
        1.0,
        0.999037504196167
      ],
      "min": [
        -0.99992835521698,
        -0.9998511075973511,
        -0.9991698861122131
      ],
      "type": "VEC3"
    },
    {
      "bufferView": 1,
      "byteOffset": 233720,
      "componentType": 5126,
      "count": 7995,
      "max": [
        239.9810028076172,
        866.8510131835938
      ],
      "min": [
        -235.06100463867188,
        -138.86099243164063
      ],
      "type": "VEC2"
    },
    {
      "bufferView": 0,
      "byteOffset": 137208,
      "componentType": 5125,
      "count": 11193,
      "type": "SCALAR"
    },
    {
      "bufferView": 2,
      "byteOffset": 893040,
      "componentType": 5126,
      "count": 5405,
      "max": [
        0.2257629930973053,
        0.3680590093135834,
        1.0887800455093384
      ],
      "min": [
        -0.07700789719820023,
        -0.35401400923728943,
        0.12787799537181854
      ],
      "type": "VEC3"
    },
    {
      "bufferView": 2,
      "byteOffset": 957900,
      "componentType": 5126,
      "count": 5405,
      "max": [
        0.9995404481887817,
        0.9995193481445313,
        0.9994025826454163
      ],
      "min": [
        -0.9997189044952393,
        -0.999525785446167,
        -0.9997502565383911
      ],
      "type": "VEC3"
    },
    {
      "bufferView": 1,
      "byteOffset": 297680,
      "componentType": 5126,
      "count": 5405,
      "max": [
        366.64898681640625,
        828.2899780273438
      ],
      "min": [
        -366.65899658203125,
        -294.6610107421875
      ],
      "type": "VEC2"
    },
    {
      "bufferView": 0,
      "byteOffset": 181980,
      "componentType": 5125,
      "count": 6453,
      "type": "SCALAR"
    },
    {
      "bufferView": 2,
      "byteOffset": 1022760,
      "componentType": 5126,
      "count": 8993,
      "max": [
        0.05659779906272888,
        0.4127900004386902,
        0.4941149950027466
      ],
      "min": [
        -0.11280500143766403,
        -0.4106450080871582,
        0.0
      ],
      "type": "VEC3"
    },
    {
      "bufferView": 2,
      "byteOffset": 1130676,
      "componentType": 5126,
      "count": 8993,
      "max": [
        0.9999982118606567,
        1.0,
        0.9997764825820923
      ],
      "min": [
        -0.9999817609786987,
        -1.0,
        -0.9991151094436646
      ],
      "type": "VEC3"
    },
    {
      "bufferView": 1,
      "byteOffset": 340920,
      "componentType": 5126,
      "count": 8993,
      "max": [
        408.9330139160156,
        461.72198486328125
      ],
      "min": [
        -408.9599914550781,
        -381.2980041503906
      ],
      "type": "VEC2"
    },
    {
      "bufferView": 0,
      "byteOffset": 207792,
      "componentType": 5125,
      "count": 10431,
      "type": "SCALAR"
    },
    {
      "bufferView": 2,
      "byteOffset": 1238592,
      "componentType": 5126,
      "count": 4095,
      "max": [
        0.01162210013717413,
        0.42795300483703613,
        0.45864999294281006
      ],
      "min": [
        -0.1323229968547821,
        -0.40417900681495667,
        0.08638869971036911
      ],
      "type": "VEC3"
    },
    {
      "bufferView": 2,
      "byteOffset": 1287732,
      "componentType": 5126,
      "count": 4095,
      "max": [
        0.9996058940887451,
        1.0,
        0.9989933371543884
      ],
      "min": [
        -0.9977562427520752,
        -1.0,
        -0.9989927411079407
      ],
      "type": "VEC3"
    },
    {
      "bufferView": 1,
      "byteOffset": 412864,
      "componentType": 5126,
      "count": 4095,
      "max": [
        424.12298583984375,
        423.58599853515625
      ],
      "min": [
        -424.12298583984375,
        -404.9460144042969
      ],
      "type": "VEC2"
    },
    {
      "bufferView": 0,
      "byteOffset": 249516,
      "componentType": 5125,
      "count": 6456,
      "type": "SCALAR"
    },
    {
      "bufferView": 2,
      "byteOffset": 1336872,
      "componentType": 5126,
      "count": 6903,
      "max": [
        0.02151009999215603,
        0.42087501287460327,
        0.24823099374771118
      ],
      "min": [
        -0.1323699951171875,
        -0.48377498984336853,
        0.05773640051484108
      ],
      "type": "VEC3"
    },
    {
      "bufferView": 2,
      "byteOffset": 1419708,
      "componentType": 5126,
      "count": 6903,
      "max": [
        0.9972384572029114,
        1.0,
        0.9981036186218262
      ],
      "min": [
        -0.9963444471359253,
        -1.0,
        -0.9972950220108032
      ],
      "type": "VEC3"
    },
    {
      "bufferView": 1,
      "byteOffset": 445624,
      "componentType": 5126,
      "count": 6903,
      "max": [
        347.9939880371094,
        420.5719909667969
      ],
      "min": [
        -347.9939880371094,
        -277.3340148925781
      ],
      "type": "VEC2"
    },
    {
      "bufferView": 0,
      "byteOffset": 275340,
      "componentType": 5125,
      "count": 9933,
      "type": "SCALAR"
    },
    {
      "bufferView": 2,
      "byteOffset": 1502544,
      "componentType": 5126,
      "count": 5152,
      "max": [
        -0.015026000328361988,
        -0.3540549874305725,
        0.2758820056915283
      ],
      "min": [
        -0.1044749990105629,
        -0.4419209957122803,
        0.08436670154333115
      ],
      "type": "VEC3"
    },
    {
      "bufferView": 2,
      "byteOffset": 1564368,
      "componentType": 5126,
      "count": 5152,
      "max": [
        0.9997527599334717,
        0.9984132647514343,
        0.9715723395347595
      ],
      "min": [
        -0.9975047707557678,
        -0.9752799868583679,
        -0.9750871062278748
      ],
      "type": "VEC3"
    },
    {
      "bufferView": 1,
      "byteOffset": 500848,
      "componentType": 5126,
      "count": 5152,
      "max": [
        40.07490158081055,
        23.329200744628906
      ],
      "min": [
        -40.07490158081055,
        -167.468994140625
      ],
      "type": "VEC2"
    },
    {
      "bufferView": 0,
      "byteOffset": 315072,
      "componentType": 5125,
      "count": 5814,
      "type": "SCALAR"
    },
    {
      "bufferView": 2,
      "byteOffset": 1626192,
      "componentType": 5126,
      "count": 16470,
      "max": [
        -0.02681720070540905,
        -0.28761500120162964,
        0.24312900006771088
      ],
      "min": [
        -0.0874779000878334,
        -0.49226000905036926,
        0.09842479974031448
      ],
      "type": "VEC3"
    },
    {
      "bufferView": 2,
      "byteOffset": 1823832,
      "componentType": 5126,
      "count": 16470,
      "max": [
        0.9998545050621033,
        0.9999833703041077,
        0.9999560117721558
      ],
      "min": [
        -0.997211217880249,
        -0.9999833703041077,
        -0.9999593496322632
      ],
      "type": "VEC3"
    },
    {
      "bufferView": 1,
      "byteOffset": 542064,
      "componentType": 5126,
      "count": 16470,
      "max": [
        127.96900177001953,
        101.49700164794922
      ],
      "min": [
        -127.96900177001953,
        -165.85899353027344
      ],
      "type": "VEC2"
    },
    {
      "bufferView": 0,
      "byteOffset": 338328,
      "componentType": 5125,
      "count": 23994,
      "type": "SCALAR"
    },
    {
      "bufferView": 2,
      "byteOffset": 2021472,
      "componentType": 5126,
      "count": 21182,
      "max": [
        -0.02694699913263321,
        0.5314180254936218,
        0.2431969940662384
      ],
      "min": [
        -0.08563829958438873,
        0.23335599899291992,
        0.13651899993419647
      ],
      "type": "VEC3"
    },
    {
      "bufferView": 2,
      "byteOffset": 2275656,
      "componentType": 5126,
      "count": 21182,
      "max": [
        0.9995347857475281,
        0.9990052580833435,
        0.9999013543128967
      ],
      "min": [
        -0.9967373609542847,
        -1.0,
        -0.9999013543128967
      ],
      "type": "VEC3"
    },
    {
      "bufferView": 1,
      "byteOffset": 673824,
      "componentType": 5126,
      "count": 21182,
      "max": [
        32.0005989074707,
        31.256900787353516
      ],
      "min": [
        -32.042198181152344,
        -27.005399703979492
      ],
      "type": "VEC2"
    },
    {
      "bufferView": 0,
      "byteOffset": 434304,
      "componentType": 5125,
      "count": 30330,
      "type": "SCALAR"
    },
    {
      "bufferView": 2,
      "byteOffset": 2529840,
      "componentType": 5126,
      "count": 2582,
      "max": [
        0.01172189973294735,
        -0.19197499752044678,
        0.511277973651886
      ],
      "min": [
        -0.1323699951171875,
        -0.40115100145339966,
        0.1301649957895279
      ],
      "type": "VEC3"
    },
    {
      "bufferView": 2,
      "byteOffset": 2560824,
      "componentType": 5126,
      "count": 2582,
      "max": [
        0.9963444471359253,
        0.9751372337341309,
        0.9959656596183777
      ],
      "min": [
        -0.9963444471359253,
        -0.9848827719688416,
        -0.9959658980369568
      ],
      "type": "VEC3"
    },
    {
      "bufferView": 1,
      "byteOffset": 843280,
      "componentType": 5126,
      "count": 2582,
      "max": [
        66.07710266113281,
        160.6540069580078
      ],
      "min": [
        -29.43549919128418,
        -23.329200744628906
      ],
      "type": "VEC2"
    },
    {
      "bufferView": 0,
      "byteOffset": 555624,
      "componentType": 5125,
      "count": 3978,
      "type": "SCALAR"
    },
    {
      "bufferView": 2,
      "byteOffset": 2591808,
      "componentType": 5126,
      "count": 4796,
      "max": [
        0.03461489826440811,
        0.466280996799469,
        0.46941301226615906
      ],
      "min": [
        -0.1116039976477623,
        -0.4110879898071289,
        0.08007200062274933
      ],
      "type": "VEC3"
    },
    {
      "bufferView": 2,
      "byteOffset": 2649360,
      "componentType": 5126,
      "count": 4796,
      "max": [
        0.9963527321815491,
        1.0,
        0.9995366334915161
      ],
      "min": [
        -0.9984753727912903,
        -1.0,
        -0.9963445663452148
      ],
      "type": "VEC3"
    },
    {
      "bufferView": 1,
      "byteOffset": 863936,
      "componentType": 5126,
      "count": 4796,
      "max": [
        411.45001220703125,
        466.2770080566406
      ],
      "min": [
        -411.4360046386719,
        -225.61099243164063
      ],
      "type": "VEC2"
    },
    {
      "bufferView": 0,
      "byteOffset": 571536,
      "componentType": 5125,
      "count": 6939,
      "type": "SCALAR"
    },
    {
      "bufferView": 2,
      "byteOffset": 2706912,
      "componentType": 5126,
      "count": 3412,
      "max": [
        0.10277500003576279,
        -0.17316199839115143,
        1.1284600496292114
      ],
      "min": [
        -0.18357500433921814,
        -0.36757999658584595,
        0.44794800877571106
      ],
      "type": "VEC3"
    },
    {
      "bufferView": 2,
      "byteOffset": 2747856,
      "componentType": 5126,
      "count": 3412,
      "max": [
        0.9984058737754822,
        0.9997474551200867,
        0.9999834895133972
      ],
      "min": [
        -0.9989142417907715,
        -0.9997475743293762,
        -0.9960927367210388
      ],
      "type": "VEC3"
    },
    {
      "bufferView": 1,
      "byteOffset": 902304,
      "componentType": 5126,
      "count": 3412,
      "max": [
        204.96600341796875,
        861.1019897460938
      ],
      "min": [
        -204.96600341796875,
        -23.70170021057129
      ],
      "type": "VEC2"
    },
    {
      "bufferView": 0,
      "byteOffset": 599292,
      "componentType": 5125,
      "count": 5928,
      "type": "SCALAR"
    },
    {
      "bufferView": 2,
      "byteOffset": 2788800,
      "componentType": 5126,
      "count": 4648,
      "max": [
        0.026929499581456184,
        0.41512998938560486,
        0.5051479935646057
      ],
      "min": [
        -0.11237599700689316,
        -0.40417900681495667,
        0.08173239976167679
      ],
      "type": "VEC3"
    },
    {
      "bufferView": 2,
      "byteOffset": 2844576,
      "componentType": 5126,
      "count": 4648,
      "max": [
        0.9999841451644897,
        1.0,
        0.9821814894676208
      ],
      "min": [
        -0.9999841451644897,
        -1.0,
        -0.9996956586837769
      ],
      "type": "VEC3"
    },
    {
      "bufferView": 1,
      "byteOffset": 929600,
      "componentType": 5126,
      "count": 4648,
      "max": [
        409.7040100097656,
        257.00299072265625
      ],
      "min": [
        -409.7040100097656,
        -280.09698486328125
      ],
      "type": "VEC2"
    },
    {
      "bufferView": 0,
      "byteOffset": 623004,
      "componentType": 5125,
      "count": 6384,
      "type": "SCALAR"
    },
    {
      "bufferView": 2,
      "byteOffset": 2900352,
      "componentType": 5126,
      "count": 18144,
      "max": [
        -0.02905859984457493,
        -0.3061870038509369,
        0.2245589941740036
      ],
      "min": [
        -0.09646669775247574,
        -0.5314880013465881,
        2.172419954149518e-05
      ],
      "type": "VEC3"
    },
    {
      "bufferView": 2,
      "byteOffset": 3118080,
      "componentType": 5126,
      "count": 18144,
      "max": [
        0.9974814653396606,
        0.9993091225624084,
        0.9996906518936157
      ],
      "min": [
        -0.9972341060638428,
        -0.9991015195846558,
        -0.9985731244087219
      ],
      "type": "VEC3"
    },
    {
      "bufferView": 1,
      "byteOffset": 966784,
      "componentType": 5126,
      "count": 18144,
      "max": [
        8.754819869995117,
        9.911470413208008
      ],
      "min": [
        -8.841750144958496,
        -7.919740200042725
      ],
      "type": "VEC2"
    },
    {
      "bufferView": 0,
      "byteOffset": 648540,
      "componentType": 5125,
      "count": 20088,
      "type": "SCALAR"
    },
    {
      "bufferView": 2,
      "byteOffset": 3335808,
      "componentType": 5126,
      "count": 18144,
      "max": [
        -0.02905840054154396,
        0.5151569843292236,
        0.2245589941740036
      ],
      "min": [
        -0.09646639972925186,
        0.2898559868335724,
        2.1681100406567566e-05
      ],
      "type": "VEC3"
    },
    {
      "bufferView": 2,
      "byteOffset": 3553536,
      "componentType": 5126,
      "count": 18144,
      "max": [
        0.9974814653396606,
        0.9993091225624084,
        0.9996906518936157
      ],
      "min": [
        -0.9972341060638428,
        -0.9991015195846558,
        -0.9985731244087219
      ],
      "type": "VEC3"
    },
    {
      "bufferView": 1,
      "byteOffset": 1111936,
      "componentType": 5126,
      "count": 18144,
      "max": [
        8.754819869995117,
        9.911470413208008
      ],
      "min": [
        -8.841750144958496,
        -7.919740200042725
      ],
      "type": "VEC2"
    },
    {
      "bufferView": 0,
      "byteOffset": 728892,
      "componentType": 5125,
      "count": 20088,
      "type": "SCALAR"
    },
    {
      "bufferView": 2,
      "byteOffset": 3771264,
      "componentType": 5126,
      "count": 146,
      "max": [
        -0.0030099700670689344,
        0.4098840057849884,
        0.19214700162410736
      ],
      "min": [
        -0.12259799987077713,
        -0.4259060025215149,
        0.10119599848985672
      ],
      "type": "VEC3"
    },
    {
      "bufferView": 2,
      "byteOffset": 3773016,
      "componentType": 5126,
      "count": 146,
      "max": [
        0.9963444471359253,
        2.2408314634958515e-06,
        0.08542703837156296
      ],
      "min": [
        -0.9963445663452148,
        -1.1727805571126737e-07,
        -0.08542713522911072
      ],
      "type": "VEC3"
    },
    {
      "bufferView": 1,
      "byteOffset": 1257088,
      "componentType": 5126,
      "count": 146,
      "max": [
        0.48965001106262207,
        0.9766259789466858
      ],
      "min": [
        0.40948599576950073,
        0.009774070233106613
      ],
      "type": "VEC2"
    },
    {
      "bufferView": 0,
      "byteOffset": 809244,
      "componentType": 5125,
      "count": 414,
      "type": "SCALAR"
    },
    {
      "bufferView": 2,
      "byteOffset": 3774768,
      "componentType": 5126,
      "count": 5720,
      "max": [
        0.00800900999456644,
        0.4574899971485138,
        0.18514999747276306
      ],
      "min": [
        -0.039069000631570816,
        0.3475230038166046,
        0.05452590063214302
      ],
      "type": "VEC3"
    },
    {
      "bufferView": 2,
      "byteOffset": 3843408,
      "componentType": 5126,
      "count": 5720,
      "max": [
        0.999898374080658,
        1.0,
        0.9963404536247253
      ],
      "min": [
        -0.999898374080658,
        -1.0,
        -0.9963404536247253
      ],
      "type": "VEC3"
    },
    {
      "bufferView": 1,
      "byteOffset": 1258256,
      "componentType": 5126,
      "count": 5720,
      "max": [
        413.70098876953125,
        447.2659912109375
      ],
      "min": [
        -413.260009765625,
        -372.9530029296875
      ],
      "type": "VEC2"
    },
    {
      "bufferView": 0,
      "byteOffset": 810900,
      "componentType": 5125,
      "count": 10611,
      "type": "SCALAR"
    },
    {
      "bufferView": 2,
      "byteOffset": 3912048,
      "componentType": 5126,
      "count": 3485,
      "max": [
        0.11517199873924255,
        0.28616899251937866,
        1.1285500526428223
      ],
      "min": [
        -0.1250309944152832,
        -0.3773829936981201,
        0.14029400050640106
      ],
      "type": "VEC3"
    },
    {
      "bufferView": 2,
      "byteOffset": 3953868,
      "componentType": 5126,
      "count": 3485,
      "max": [
        0.9991326332092285,
        1.0,
        0.9963444471359253
      ],
      "min": [
        -0.9991755485534668,
        -1.0,
        -0.9951522350311279
      ],
      "type": "VEC3"
    },
    {
      "bufferView": 1,
      "byteOffset": 1304016,
      "componentType": 5126,
      "count": 3485,
      "max": [
        282.3080139160156,
        864.0969848632813
      ],
      "min": [
        -282.3080139160156,
        -65.37259674072266
      ],
      "type": "VEC2"
    },
    {
      "bufferView": 0,
      "byteOffset": 853344,
      "componentType": 5125,
      "count": 5022,
      "type": "SCALAR"
    },
    {
      "bufferView": 2,
      "byteOffset": 3995688,
      "componentType": 5126,
      "count": 8108,
      "max": [
        -0.03217209875583649,
        -0.30582499504089355,
        0.4320249855518341
      ],
      "min": [
        -0.09823930263519287,
        -0.502485990524292,
        0.026984499767422676
      ],
      "type": "VEC3"
    },
    {
      "bufferView": 2,
      "byteOffset": 4092984,
      "componentType": 5126,
      "count": 8108,
      "max": [
        0.9963444471359253,
        0.9992651343345642,
        0.9956122636795044
      ],
      "min": [
        -0.9999051094055176,
        -0.9914447665214539,
        -0.9956122636795044
      ],
      "type": "VEC3"
    },
    {
      "bufferView": 1,
      "byteOffset": 1331896,
      "componentType": 5126,
      "count": 8108,
      "max": [
        83.6489028930664,
        174.13900756835938
      ],
      "min": [
        -83.6489028930664,
        -83.6489028930664
      ],
      "type": "VEC2"
    },
    {
      "bufferView": 0,
      "byteOffset": 873432,
      "componentType": 5125,
      "count": 12306,
      "type": "SCALAR"
    },
    {
      "bufferView": 2,
      "byteOffset": 4190280,
      "componentType": 5126,
      "count": 3264,
      "max": [
        -0.028397899121046066,
        -0.34217599034309387,
        0.18674300611019135
      ],
      "min": [
        -0.04708569869399071,
        -0.49549800157546997,
        0.033980999141931534
      ],
      "type": "VEC3"
    },
    {
      "bufferView": 2,
      "byteOffset": 4229448,
      "componentType": 5126,
      "count": 3264,
      "max": [
        0.9992113709449768,
        0.8239712715148926,
        0.7725595235824585
      ],
      "min": [
        0.4941790699958801,
        -0.8239684700965881,
        -0.8693601489067078
      ],
      "type": "VEC3"
    },
    {
      "bufferView": 1,
      "byteOffset": 1396760,
      "componentType": 5126,
      "count": 3264,
      "max": [
        58.91669845581055,
        65.27670288085938
      ],
      "min": [
        -58.91659927368164,
        -74.720703125
      ],
      "type": "VEC2"
    },
    {
      "bufferView": 0,
      "byteOffset": 922656,
      "componentType": 5125,
      "count": 4428,
      "type": "SCALAR"
    },
    {
      "bufferView": 2,
      "byteOffset": 4268616,
      "componentType": 5126,
      "count": 20574,
      "max": [
        -0.027333499863743782,
        0.48613500595092773,
        0.19753700494766235
      ],
      "min": [
        -0.09758560359477997,
        0.3188779950141907,
        0.027000799775123596
      ],
      "type": "VEC3"
    },
    {
      "bufferView": 2,
      "byteOffset": 4515504,
      "componentType": 5126,
      "count": 20574,
      "max": [
        0.9994431138038635,
        1.0,
        0.9988481402397156
      ],
      "min": [
        -0.9994452595710754,
        -1.0,
        -0.9972280263900757
      ],
      "type": "VEC3"
    },
    {
      "bufferView": 1,
      "byteOffset": 1422872,
      "componentType": 5126,
      "count": 20574,
      "max": [
        62.567501068115234,
        85.69740295410156
      ],
      "min": [
        -62.689998626708984,
        -85.69740295410156
      ],
      "type": "VEC2"
    },
    {
      "bufferView": 0,
      "byteOffset": 940368,
      "componentType": 5125,
      "count": 28164,
      "type": "SCALAR"
    },
    {
      "bufferView": 2,
      "byteOffset": 4762392,
      "componentType": 5126,
      "count": 9964,
      "max": [
        0.11907300353050232,
        0.23961099982261658,
        1.1122499704360962
      ],
      "min": [
        -0.08960819989442825,
        -0.32727301120758057,
        0.14183300733566284
      ],
      "type": "VEC3"
    },
    {
      "bufferView": 2,
      "byteOffset": 4881960,
      "componentType": 5126,
      "count": 9964,
      "max": [
        0.9963444471359253,
        1.0,
        0.9963444471359253
      ],
      "min": [
        -0.9772040247917175,
        -1.0,
        -0.9962735176086426
      ],
      "type": "VEC3"
    },
    {
      "bufferView": 1,
      "byteOffset": 1587464,
      "componentType": 5126,
      "count": 9964,
      "max": [
        271.37200927734375,
        844.3770141601563
      ],
      "min": [
        -272.3219909667969,
        -59.02259826660156
      ],
      "type": "VEC2"
    },
    {
      "bufferView": 0,
      "byteOffset": 1053024,
      "componentType": 5125,
      "count": 16746,
      "type": "SCALAR"
    },
    {
      "bufferView": 2,
      "byteOffset": 5001528,
      "componentType": 5126,
      "count": 9970,
      "max": [
        -0.0009535420103929937,
        0.27246299386024475,
        0.42166098952293396
      ],
      "min": [
        -0.11151599884033203,
        -0.47730299830436707,
        0.05172570049762726
      ],
      "type": "VEC3"
    },
    {
      "bufferView": 2,
      "byteOffset": 5121168,
      "componentType": 5126,
      "count": 9970,
      "max": [
        0.9999666213989258,
        1.0,
        0.9963444471359253
      ],
      "min": [
        -0.9963444471359253,
        -1.0,
        -0.7632799744606018
      ],
      "type": "VEC3"
    },
    {
      "bufferView": 1,
      "byteOffset": 1667176,
      "componentType": 5126,
      "count": 9970,
      "max": [
        268.6029968261719,
        174.42799377441406
      ],
      "min": [
        -267.6520080566406,
        -59.02259826660156
      ],
      "type": "VEC2"
    },
    {
      "bufferView": 0,
      "byteOffset": 1120008,
      "componentType": 5125,
      "count": 16284,
      "type": "SCALAR"
    },
    {
      "bufferView": 2,
      "byteOffset": 5240808,
      "componentType": 5126,
      "count": 10000,
      "max": [
        -0.02996399998664856,
        0.27246299386024475,
        0.1525149941444397
      ],
      "min": [
        -0.11861900240182877,
        -0.2678320109844208,
        0.14431999623775482
      ],
      "type": "VEC3"
    },
    {
      "bufferView": 2,
      "byteOffset": 5360808,
      "componentType": 5126,
      "count": 10000,
      "max": [
        0.9772040247917175,
        1.0,
        0.9963444471359253
      ],
      "min": [
        -0.9772047400474548,
        -1.0,
        -0.08379200845956802
      ],
      "type": "VEC3"
    },
    {
      "bufferView": 1,
      "byteOffset": 1746936,
      "componentType": 5126,
      "count": 10000,
      "max": [
        270.7409973144531,
        148.01499938964844
      ],
      "min": [
        -271.6919860839844,
        -29.905799865722656
      ],
      "type": "VEC2"
    },
    {
      "bufferView": 0,
      "byteOffset": 1185144,
      "componentType": 5125,
      "count": 16800,
      "type": "SCALAR"
    },
    {
      "bufferView": 2,
      "byteOffset": 5480808,
      "componentType": 5126,
      "count": 1310,
      "max": [
        0.11565099656581879,
        0.2378000020980835,
        1.064710021018982
      ],
      "min": [
        -0.11861900240182877,
        -0.3624660074710846,
        0.14451299607753754
      ],
      "type": "VEC3"
    },
    {
      "bufferView": 2,
      "byteOffset": 5496528,
      "componentType": 5126,
      "count": 1310,
      "max": [
        0.9963445663452148,
        1.0,
        0.9963444471359253
      ],
      "min": [
        -0.9963444471359253,
        -1.0,
        -0.9963444471359253
      ],
      "type": "VEC3"
    },
    {
      "bufferView": 1,
      "byteOffset": 1826936,
      "componentType": 5126,
      "count": 1310,
      "max": [
        237.84100341796875,
        806.7559814453125
      ],
      "min": [
        -236.4340057373047,
        -12.505900382995605
      ],
      "type": "VEC2"
    },
    {
      "bufferView": 0,
      "byteOffset": 1252344,
      "componentType": 5125,
      "count": 2286,
      "type": "SCALAR"
    },
    {
      "bufferView": 2,
      "byteOffset": 5512248,
      "componentType": 5126,
      "count": 368,
      "max": [
        0.033490199595689774,
        -0.2974880039691925,
        1.1122499704360962
      ],
      "min": [
        0.010308199562132359,
        -0.31169500946998596,
        1.0878299474716187
      ],
      "type": "VEC3"
    },
    {
      "bufferView": 2,
      "byteOffset": 5516664,
      "componentType": 5126,
      "count": 368,
      "max": [
        0.9963444471359253,
        0.9751369953155518,
        0.9913317561149597
      ],
      "min": [
        -0.9963444471359253,
        -0.9992662668228149,
        -0.9891464710235596
      ],
      "type": "VEC3"
    },
    {
      "bufferView": 1,
      "byteOffset": 1837416,
      "componentType": 5126,
      "count": 368,
      "max": [
        112.88700103759766,
        843.27197265625
      ],
      "min": [
        -112.88700103759766,
        93.28620147705078
      ],
      "type": "VEC2"
    },
    {
      "bufferView": 0,
      "byteOffset": 1261488,
      "componentType": 5125,
      "count": 702,
      "type": "SCALAR"
    }
  ],
  "asset": {
    "extras": {
      "author": "tonielpro520 (https://sketchfab.com/tonielpro520)",
      "license": "CC-BY-4.0 (http://creativecommons.org/licenses/by/4.0/)",
      "source": "https://sketchfab.com/3d-models/2022-xiaomi-mi-scooter-582845e3d7b24d7a971fbb2bcd0cac0b",
      "title": "2022 Xiaomi Mi Scooter"
    },
    "generator": "Sketchfab-16.95.0",
    "version": "2.0"
  },
  "bufferViews": [
    {
      "buffer": 0,
      "byteLength": 1264296,
      "name": "floatBufferViews",
      "target": 34963
    },
    {
      "buffer": 0,
      "byteLength": 1840360,
      "byteOffset": 1264296,
      "byteStride": 8,
      "name": "floatBufferViews",
      "target": 34962
    },
    {
      "buffer": 0,
      "byteLength": 5521080,
      "byteOffset": 3104656,
      "byteStride": 12,
      "name": "floatBufferViews",
      "target": 34962
    }
  ],
  "buffers": [
    {
      "byteLength": 8625736,
      "uri": "scene.bin"
    }
  ],
  "images": [
    {
      "uri": "textures/Carro_Botoes_baseColor.png"
    },
    {
      "uri": "textures/Carro_Paine_baseColor.png"
    },
    {
      "uri": "textures/Carro_Reflectores_baseColor.png"
    },
    {
      "uri": "textures/Carro_Refletor_Farol_baseColor.png"
    },
    {
      "uri": "textures/Carro_Refletor_Lanterna_baseColor.png"
    },
    {
      "uri": "textures/Carro_Vermelho_baseColor.png"
    }
  ],
  "materials": [
    {
      "doubleSided": true,
      "name": "Carro_Aluminum",
      "pbrMetallicRoughness": {
        "baseColorFactor": [
          0.815686,
          0.815686,
          0.815686,
          1.0
        ],
        "metallicFactor": 0.0
      }
    },
    {
      "doubleSided": true,
      "name": "Carro_Botoes",
      "pbrMetallicRoughness": {
        "baseColorTexture": {
          "index": 0
        },
        "metallicFactor": 0.0
      }
    },
    {
      "doubleSided": true,
      "name": "Carro_Metal_Preto",
      "pbrMetallicRoughness": {
        "baseColorFactor": [
          0.227451,
          0.227451,
          0.227451,
          1.0
        ],
        "metallicFactor": 0.0
      }
    },
    {
      "doubleSided": true,
      "name": "Carro_Metal_Preto_1",
      "pbrMetallicRoughness": {
        "baseColorFactor": [
          0.227451,
          0.227451,
          0.227451,
          1.0
        ],
        "metallicFactor": 0.0
      }
    },
    {
      "doubleSided": true,
      "name": "Carro_Metal_Vermelho",
      "pbrMetallicRoughness": {
        "baseColorFactor": [
          0.992157,
          0.0,
          0.0,
          1.0
        ],
        "metallicFactor": 0.0
      }
    },
    {
      "doubleSided": true,
      "name": "Carro_Metal_Vermelho_1",
      "pbrMetallicRoughness": {
        "baseColorFactor": [
          0.603922,
          0.109804,
          0.14902,
          1.0
        ],
        "metallicFactor": 0.0
      }
    },
    {
      "doubleSided": true,
      "name": "Carro_Paine",
      "pbrMetallicRoughness": {
        "baseColorTexture": {
          "index": 1
        },
        "metallicFactor": 0.0
      }
    },
    {
      "doubleSided": true,
      "name": "Carro_Pintura",
      "pbrMetallicRoughness": {
        "baseColorFactor": [
          0.976471,
          0.976471,
          0.976471,
          1.0
        ],
        "metallicFactor": 0.0
      }
    },
    {
      "doubleSided": true,
      "name": "Carro_Pintura_1",
      "pbrMetallicRoughness": {
        "baseColorFactor": [
          0.976471,
          0.976471,
          0.976471,
          1.0
        ],
        "metallicFactor": 0.0
      }
    },
    {
      "doubleSided": true,
      "name": "Carro_Plastico",
      "pbrMetallicRoughness": {
        "baseColorFactor": [
          0.07451,
          0.07451,
          0.07451,
          1.0
        ],
        "metallicFactor": 0.0
      }
    },
    {
      "doubleSided": true,
      "name": "Carro_Plastico_1",
      "pbrMetallicRoughness": {
        "baseColorFactor": [
          0.07451,
          0.07451,
          0.07451,
          1.0
        ],
        "metallicFactor": 0.0
      }
    },
    {
      "doubleSided": true,
      "name": "Carro_Plastico_2",
      "pbrMetallicRoughness": {
        "baseColorFactor": [
          0.376471,
          0.376471,
          0.376471,
          1.0
        ],
        "metallicFactor": 0.0
      }
    },
    {
      "doubleSided": true,
      "name": "Carro_Pneu",
      "pbrMetallicRoughness": {
        "baseColorFactor": [
          0.121569,
          0.121569,
          0.121569,
          1.0
        ],
        "metallicFactor": 0.0
      }
    },
    {
      "doubleSided": true,
      "name": "Carro_Reflectores",
      "pbrMetallicRoughness": {
        "baseColorTexture": {
          "index": 2
        },
        "metallicFactor": 0.0
      }
    },
    {
      "doubleSided": true,
      "name": "Carro_Refletor_Farol",
      "pbrMetallicRoughness": {
        "baseColorTexture": {
          "index": 3
        },
        "metallicFactor": 0.0
      }
    },
    {
      "doubleSided": true,
      "name": "Carro_Refletor_Lanterna",
      "pbrMetallicRoughness": {
        "baseColorTexture": {
          "index": 4
        },
        "metallicFactor": 0.0
      }
    },
    {
      "doubleSided": true,
      "name": "Carro_Roda",
      "pbrMetallicRoughness": {
        "baseColorFactor": [
          0.827451,
          0.827451,
          0.827451,
          1.0
        ],
        "metallicFactor": 0.0
      }
    },
    {
      "doubleSided": true,
      "name": "Carro_Roda_1",
      "pbrMetallicRoughness": {
        "baseColorFactor": [
          0.827451,
          0.827451,
          0.827451,
          1.0
        ],
        "metallicFactor": 0.0
      }
    },
    {
      "doubleSided": true,
      "name": "Carro_Vermelho",
      "pbrMetallicRoughness": {
        "baseColorTexture": {
          "index": 5
        },
        "metallicFactor": 0.0
      }
    },
    {
      "alphaMode": "BLEND",
      "doubleSided": true,
      "name": "Carro_Vidro_R",
      "pbrMetallicRoughness": {
        "baseColorFactor": [
          0.0,
          0.0,
          0.0,
          0.145931
        ],
        "metallicFactor": 0.0
      }
    },
    {
      "alphaMode": "BLEND",
      "doubleSided": true,
      "name": "Carro_Vidros_Vermelhos",
      "pbrMetallicRoughness": {
        "baseColorFactor": [
          0.0,
          0.0,
          0.0,
          0.4
        ],
        "metallicFactor": 0.0
      }
    }
  ],
  "meshes": [
    {
      "name": "Object_0",
      "primitives": [
        {
          "attributes": {
            "NORMAL": 1,
            "POSITION": 0,
            "TEXCOORD_0": 2
          },
          "indices": 3,
          "material": 0,
          "mode": 4
        }
      ]
    },
    {
      "name": "Object_1",
      "primitives": [
        {
          "attributes": {
            "NORMAL": 5,
            "POSITION": 4,
            "TEXCOORD_0": 6
          },
          "indices": 7,
          "material": 1,
          "mode": 4
        }
      ]
    },
    {
      "name": "Object_2",
      "primitives": [
        {
          "attributes": {
            "NORMAL": 9,
            "POSITION": 8,
            "TEXCOORD_0": 10
          },
          "indices": 11,
          "material": 4,
          "mode": 4
        }
      ]
    },
    {
      "name": "Object_3",
      "primitives": [
        {
          "attributes": {
            "NORMAL": 13,
            "POSITION": 12,
            "TEXCOORD_0": 14
          },
          "indices": 15,
          "material": 6,
          "mode": 4
        }
      ]
    },
    {
      "name": "Object_4",
      "primitives": [
        {
          "attributes": {
            "NORMAL": 17,
            "POSITION": 16,
            "TEXCOORD_0": 18
          },
          "indices": 19,
          "material": 14,
          "mode": 4
        }
      ]
    },
    {
      "name": "Object_5",
      "primitives": [
        {
          "attributes": {
            "NORMAL": 21,
            "POSITION": 20,
            "TEXCOORD_0": 22
          },
          "indices": 23,
          "material": 15,
          "mode": 4
        }
      ]
    },
    {
      "name": "Object_6",
      "primitives": [
        {
          "attributes": {
            "NORMAL": 25,
            "POSITION": 24,
            "TEXCOORD_0": 26
          },
          "indices": 27,
          "material": 18,
          "mode": 4
        }
      ]
    },
    {
      "name": "Object_7",
      "primitives": [
        {
          "attributes": {
            "NORMAL": 29,
            "POSITION": 28,
            "TEXCOORD_0": 30
          },
          "indices": 31,
          "material": 20,
          "mode": 4
        }
      ]
    },
    {
      "name": "Object_8",
      "primitives": [
        {
          "attributes": {
            "NORMAL": 33,
            "POSITION": 32,
            "TEXCOORD_0": 34
          },
          "indices": 35,
          "material": 2,
          "mode": 4
        }
      ]
    },
    {
      "name": "Object_9",
      "primitives": [
        {
          "attributes": {
            "NORMAL": 37,
            "POSITION": 36,
            "TEXCOORD_0": 38
          },
          "indices": 39,
          "material": 2,
          "mode": 4
        }
      ]
    },
    {
      "name": "Object_10",
      "primitives": [
        {
          "attributes": {
            "NORMAL": 41,
            "POSITION": 40,
            "TEXCOORD_0": 42
          },
          "indices": 43,
          "material": 2,
          "mode": 4
        }
      ]
    },
    {
      "name": "Object_11",
      "primitives": [
        {
          "attributes": {
            "NORMAL": 45,
            "POSITION": 44,
            "TEXCOORD_0": 46
          },
          "indices": 47,
          "material": 3,
          "mode": 4
        }
      ]
    },
    {
      "name": "Object_12",
      "primitives": [
        {
          "attributes": {
            "NORMAL": 49,
            "POSITION": 48,
            "TEXCOORD_0": 50
          },
          "indices": 51,
          "material": 5,
          "mode": 4
        }
      ]
    },
    {
      "name": "Object_13",
      "primitives": [
        {
          "attributes": {
            "NORMAL": 53,
            "POSITION": 52,
            "TEXCOORD_0": 54
          },
          "indices": 55,
          "material": 7,
          "mode": 4
        }
      ]
    },
    {
      "name": "Object_14",
      "primitives": [
        {
          "attributes": {
            "NORMAL": 57,
            "POSITION": 56,
            "TEXCOORD_0": 58
          },
          "indices": 59,
          "material": 7,
          "mode": 4
        }
      ]
    },
    {
      "name": "Object_15",
      "primitives": [
        {
          "attributes": {
            "NORMAL": 61,
            "POSITION": 60,
            "TEXCOORD_0": 62
          },
          "indices": 63,
          "material": 8,
          "mode": 4
        }
      ]
    },
    {
      "name": "Object_16",
      "primitives": [
        {
          "attributes": {
            "NORMAL": 65,
            "POSITION": 64,
            "TEXCOORD_0": 66
          },
          "indices": 67,
          "material": 8,
          "mode": 4
        }
      ]
    },
    {
      "name": "Object_17",
      "primitives": [
        {
          "attributes": {
            "NORMAL": 69,
            "POSITION": 68,
            "TEXCOORD_0": 70
          },
          "indices": 71,
          "material": 8,
          "mode": 4
        }
      ]
    },
    {
      "name": "Object_18",
      "primitives": [
        {
          "attributes": {
            "NORMAL": 73,
            "POSITION": 72,
            "TEXCOORD_0": 74
          },
          "indices": 75,
          "material": 8,
          "mode": 4
        }
      ]
    },
    {
      "name": "Object_19",
      "primitives": [
        {
          "attributes": {
            "NORMAL": 77,
            "POSITION": 76,
            "TEXCOORD_0": 78
          },
          "indices": 79,
          "material": 8,
          "mode": 4
        }
      ]
    },
    {
      "name": "Object_20",
      "primitives": [
        {
          "attributes": {
            "NORMAL": 81,
            "POSITION": 80,
            "TEXCOORD_0": 82
          },
          "indices": 83,
          "material": 9,
          "mode": 4
        }
      ]
    },
    {
      "name": "Object_21",
      "primitives": [
        {
          "attributes": {
            "NORMAL": 85,
            "POSITION": 84,
            "TEXCOORD_0": 86
          },
          "indices": 87,
          "material": 10,
          "mode": 4
        }
      ]
    },
    {
      "name": "Object_22",
      "primitives": [
        {
          "attributes": {
            "NORMAL": 89,
            "POSITION": 88,
            "TEXCOORD_0": 90
          },
          "indices": 91,
          "material": 11,
          "mode": 4
        }
      ]
    },
    {
      "name": "Object_23",
      "primitives": [
        {
          "attributes": {
            "NORMAL": 93,
            "POSITION": 92,
            "TEXCOORD_0": 94
          },
          "indices": 95,
          "material": 12,
          "mode": 4
        }
      ]
    },
    {
      "name": "Object_24",
      "primitives": [
        {
          "attributes": {
            "NORMAL": 97,
            "POSITION": 96,
            "TEXCOORD_0": 98
          },
          "indices": 99,
          "material": 12,
          "mode": 4
        }
      ]
    },
    {
      "name": "Object_25",
      "primitives": [
        {
          "attributes": {
            "NORMAL": 101,
            "POSITION": 100,
            "TEXCOORD_0": 102
          },
          "indices": 103,
          "material": 13,
          "mode": 4
        }
      ]
    },
    {
      "name": "Object_26",
      "primitives": [
        {
          "attributes": {
            "NORMAL": 105,
            "POSITION": 104,
            "TEXCOORD_0": 106
          },
          "indices": 107,
          "material": 16,
          "mode": 4
        }
      ]
    },
    {
      "name": "Object_27",
      "primitives": [
        {
          "attributes": {
            "NORMAL": 109,
            "POSITION": 108,
            "TEXCOORD_0": 110
          },
          "indices": 111,
          "material": 17,
          "mode": 4
        }
      ]
    },
    {
      "name": "Object_28",
      "primitives": [
        {
          "attributes": {
            "NORMAL": 113,
            "POSITION": 112,
            "TEXCOORD_0": 114
          },
          "indices": 115,
          "material": 17,
          "mode": 4
        }
      ]
    },
    {
      "name": "Object_29",
      "primitives": [
        {
          "attributes": {
            "NORMAL": 117,
            "POSITION": 116,
            "TEXCOORD_0": 118
          },
          "indices": 119,
          "material": 17,
          "mode": 4
        }
      ]
    },
    {
      "name": "Object_30",
      "primitives": [
        {
          "attributes": {
            "NORMAL": 121,
            "POSITION": 120,
            "TEXCOORD_0": 122
          },
          "indices": 123,
          "material": 17,
          "mode": 4
        }
      ]
    },
    {
      "name": "Object_31",
      "primitives": [
        {
          "attributes": {
            "NORMAL": 125,
            "POSITION": 124,
            "TEXCOORD_0": 126
          },
          "indices": 127,
          "material": 17,
          "mode": 4
        }
      ]
    },
    {
      "name": "Object_32",
      "primitives": [
        {
          "attributes": {
            "NORMAL": 129,
            "POSITION": 128,
            "TEXCOORD_0": 130
          },
          "indices": 131,
          "material": 17,
          "mode": 4
        }
      ]
    },
    {
      "name": "Object_33",
      "primitives": [
        {
          "attributes": {
            "NORMAL": 133,
            "POSITION": 132,
            "TEXCOORD_0": 134
          },
          "indices": 135,
          "material": 17,
          "mode": 4
        }
      ]
    },
    {
      "name": "Object_34",
      "primitives": [
        {
          "attributes": {
            "NORMAL": 137,
            "POSITION": 136,
            "TEXCOORD_0": 138
          },
          "indices": 139,
          "material": 17,
          "mode": 4
        }
      ]
    },
    {
      "name": "Object_35",
      "primitives": [
        {
          "attributes": {
            "NORMAL": 141,
            "POSITION": 140,
            "TEXCOORD_0": 142
          },
          "indices": 143,
          "material": 19,
          "mode": 4
        }
      ]
    }
  ],
  "nodes": [
    {
      "children": [
        1
      ],
      "matrix": [
        1.0,
        0.0,
        0.0,
        0.0,
        0.0,
        2.220446049250313e-16,
        -1.0,
        0.0,
        0.0,
        1.0,
        2.220446049250313e-16,
        0.0,
        0.0,
        0.0,
        0.0,
        1.0
      ],
      "name": "Sketchfab_model"
    },
    {
      "children": [
        2,
        3,
        4,
        5,
        6,
        7,
        8,
        9,
        10,
        11,
        12,
        13,
        14,
        15,
        16,
        17,
        18,
        19,
        20,
        21,
        22,
        23,
        24,
        25,
        26,
        27,
        28,
        29,
        30,
        31,
        32,
        33,
        34,
        35,
        36,
        37
      ],
      "name": "c3ca62a2-194b-46d8-8416-24b9b402680d.obj.cleaner.materialmerger.gles"
    },
    {
      "mesh": 0,
      "name": "Object_2"
    },
    {
      "mesh": 1,
      "name": "Object_3"
    },
    {
      "mesh": 2,
      "name": "Object_4"
    },
    {
      "mesh": 3,
      "name": "Object_5"
    },
    {
      "mesh": 4,
      "name": "Object_6"
    },
    {
      "mesh": 5,
      "name": "Object_7"
    },
    {
      "mesh": 6,
      "name": "Object_8"
    },
    {
      "mesh": 7,
      "name": "Object_9"
    },
    {
      "mesh": 8,
      "name": "Object_10"
    },
    {
      "mesh": 9,
      "name": "Object_11"
    },
    {
      "mesh": 10,
      "name": "Object_12"
    },
    {
      "mesh": 11,
      "name": "Object_13"
    },
    {
      "mesh": 12,
      "name": "Object_14"
    },
    {
      "mesh": 13,
      "name": "Object_15"
    },
    {
      "mesh": 14,
      "name": "Object_16"
    },
    {
      "mesh": 15,
      "name": "Object_17"
    },
    {
      "mesh": 16,
      "name": "Object_18"
    },
    {
      "mesh": 17,
      "name": "Object_19"
    },
    {
      "mesh": 18,
      "name": "Object_20"
    },
    {
      "mesh": 19,
      "name": "Object_21"
    },
    {
      "mesh": 20,
      "name": "Object_22"
    },
    {
      "mesh": 21,
      "name": "Object_23"
    },
    {
      "mesh": 22,
      "name": "Object_24"
    },
    {
      "mesh": 23,
      "name": "Object_25"
    },
    {
      "mesh": 24,
      "name": "Object_26"
    },
    {
      "mesh": 25,
      "name": "Object_27"
    },
    {
      "mesh": 26,
      "name": "Object_28"
    },
    {
      "mesh": 27,
      "name": "Object_29"
    },
    {
      "mesh": 28,
      "name": "Object_30"
    },
    {
      "mesh": 29,
      "name": "Object_31"
    },
    {
      "mesh": 30,
      "name": "Object_32"
    },
    {
      "mesh": 31,
      "name": "Object_33"
    },
    {
      "mesh": 32,
      "name": "Object_34"
    },
    {
      "mesh": 33,
      "name": "Object_35"
    },
    {
      "mesh": 34,
      "name": "Object_36"
    },
    {
      "mesh": 35,
      "name": "Object_37"
    }
  ],
  "samplers": [
    {
      "magFilter": 9729,
      "minFilter": 9987,
      "wrapS": 10497,
      "wrapT": 10497
    }
  ],
  "scene": 0,
  "scenes": [
    {
      "name": "Sketchfab_Scene",
      "nodes": [
        0
      ]
    }
  ],
  "textures": [
    {
      "sampler": 0,
      "source": 0
    },
    {
      "sampler": 0,
      "source": 1
    },
    {
      "sampler": 0,
      "source": 2
    },
    {
      "sampler": 0,
      "source": 3
    },
    {
      "sampler": 0,
      "source": 4
    },
    {
      "sampler": 0,
      "source": 5
    }
  ]
}
